<?xml version="1.0" encoding="utf-8"?>
<!-- Generator: Adobe Illustrator 16.0.0, SVG Export Plug-In . SVG Version: 6.00 Build 0)  -->
<!DOCTYPE svg PUBLIC "-//W3C//DTD SVG 1.1//EN" "http://www.w3.org/Graphics/SVG/1.1/DTD/svg11.dtd">
<svg version="1.1" id="Layer_1" xmlns="http://www.w3.org/2000/svg" xmlns:xlink="http://www.w3.org/1999/xlink" x="0px" y="0px"
	 width="16px" height="16px" viewBox="0 0 16 16" enable-background="new 0 0 16 16" xml:space="preserve">
<g id="layer1">
	<path id="path2417" fill="none" stroke="#555555" stroke-miterlimit="10" d="M7.413,13.954c-0.321-0.358-1.124-1.061-1.782-1.558
		c-1.952-1.475-2.217-1.688-3.01-2.418C1.16,8.634,0.54,7.282,0.542,5.449C0.543,4.555,0.604,4.21,0.854,3.683
		c0.424-0.895,1.051-1.559,1.851-1.966C3.272,1.429,3.553,1.301,4.5,1.295c0.99-0.006,1.199,0.11,1.781,0.43
		c0.709,0.39,1.438,1.222,1.59,1.814l0.092,0.365l0.23-0.503c1.299-2.843,5.444-2.8,6.888,0.071
		c0.458,0.911,0.508,2.855,0.102,3.951c-0.528,1.429-1.522,2.519-3.822,4.19c-1.507,1.092-3.214,2.75-3.333,2.984
		C7.89,14.867,8.021,14.636,7.413,13.954z"/>
	<g id="g2221" transform="translate(129.28571,-64.285714)">
	</g>
</g>
</svg>
