<?xml version="1.0" encoding="utf-8"?>
<!-- Generator: Adobe Illustrator 16.0.0, SVG Export Plug-In . SVG Version: 6.00 Build 0)  -->
<!DOCTYPE svg PUBLIC "-//W3C//DTD SVG 1.1//EN" "http://www.w3.org/Graphics/SVG/1.1/DTD/svg11.dtd">
<svg version="1.1" id="Layer_1" xmlns="http://www.w3.org/2000/svg" xmlns:xlink="http://www.w3.org/1999/xlink" x="0px" y="0px"
	 width="40px" height="40px" viewBox="0 0 40 40" enable-background="new 0 0 40 40" xml:space="preserve">
<path fill="#E0E0E0" d="M7.47,7.692c0.565-1.908,3.746-4.565,9.965-4.19c0,0,3.251,0.162,0.707,15.781c0,0-3.816,9.824-9.752,14.7
	c0,0-2.968,2.119-4.735,1.06c0,0-2.969-1.907,0.353-5.158c0,0,4.24-5.725,5.159-8.198c0,0,0.99-2.049,0.071-5.088
	S6.904,9.6,7.47,7.692z"/>
<path fill="#E0E0E0" d="M26.47,7.692c0.565-1.908,3.746-4.565,9.965-4.19c0,0,3.251,0.162,0.706,15.781c0,0-3.815,9.824-9.752,14.7
	c0,0-2.968,2.119-4.734,1.06c0,0-2.969-1.907,0.353-5.158c0,0,4.24-5.725,5.159-8.198c0,0,0.99-2.049,0.07-5.088
	C27.318,13.558,25.904,9.6,26.47,7.692z"/>
</svg>
