<?xml version="1.0" encoding="utf-8"?>
<!-- Generator: Adobe Illustrator 16.0.0, SVG Export Plug-In . SVG Version: 6.00 Build 0)  -->
<!DOCTYPE svg PUBLIC "-//W3C//DTD SVG 1.1//EN" "http://www.w3.org/Graphics/SVG/1.1/DTD/svg11.dtd">
<svg version="1.1" id="Layer_1" xmlns="http://www.w3.org/2000/svg" xmlns:xlink="http://www.w3.org/1999/xlink" x="0px" y="0px"
	 width="40px" height="40px" viewBox="0 0 40 40" enable-background="new 0 0 40 40" xml:space="preserve">
<path fill="#E0E0E0" d="M33.077,31.112c-0.565,1.908-3.746,4.565-9.965,4.19c0,0-3.251-0.162-0.707-15.781
	c0,0,3.817-9.823,9.754-14.699c0,0,2.967-2.119,4.733-1.06c0,0,2.97,1.907-0.353,5.158c0,0-4.24,5.726-5.159,8.199
	c0,0-0.99,2.05-0.071,5.088C32.229,25.246,33.643,29.204,33.077,31.112z"/>
<path fill="#E0E0E0" d="M14.077,31.112c-0.565,1.907-3.746,4.565-9.965,4.19c0,0-3.251-0.162-0.706-15.78
	c0,0,3.815-9.824,9.752-14.7c0,0,2.968-2.119,4.734-1.059c0,0,2.968,1.906-0.353,5.158c0,0-4.24,5.724-5.159,8.198
	c0,0-0.99,2.049-0.07,5.089C13.229,25.246,14.643,29.204,14.077,31.112z"/>
</svg>
